# xmcd
#
# Track frame offsets:
#	150
#	15236
#	30075
#	43130
#	57928
#	75112
#	89546
#	105957
#	114339
#	123865
#	146817
#
# Disc length: 2235 seconds
#
# Revision: 1
# Processed by: cddbd v1.5.2PL0 Copyright (c) Steve Scherf et al.
# Submitted via: EZCDAudioConverter 8.1.0.1
#
DISCID=7408b90b
DTITLE=Jim White Vs. The Packway Handle Band - Take It Like A Man
DYEAR=2015
DGENRE=Country
TTITLE0=Smack Dab In A Big Tornado
TTITLE1=Breathing Room
TTITLE2=Corn Pone Refugee
TTITLE3=Not A Song
TTITLE4=Jim 3:16
TTITLE5=Gravity Won't Fail
TTITLE6=Wordmule Revisited
TTITLE7=Paranormal Girlfriend
TTITLE8=Blood On The Fiddle, Blood On The Bow
TTITLE9=Sorrow's Shine
TTITLE10=Sinner!
EXTD=
EXTT0=
EXTT1=
EXTT2=
EXTT3=
EXTT4=
EXTT5=
EXTT6=
EXTT7=
EXTT8=
EXTT9=
EXTT10=
PLAYORDER=
